<svg xmlns="http://www.w3.org/2000/svg" version="1.1" width="1500" height="1500" viewBox="0 0 1500 1500"><rect width="1500" height="1500" fill="#243837"></rect><g transform="matrix(0.6666666666666666,0,0,0.6666666666666666,249.39393939393938,438.58569500674776)">
    <svg viewBox="0 0 396 247" data-background-color="#243837" preserveAspectRatio="xMidYMid meet" height="935"
         width="1500" xmlns="http://www.w3.org/2000/svg"><g id="tight-bounds" transform="matrix(1,0,0,1,0.2400000000000091,-0.09999999999999432)"><svg viewBox="0 0 395.52 247.2" height="247.2" width="395.52"><g><svg></svg></g><g><svg viewBox="0 0 395.52 247.2" height="247.2" width="395.52"><g transform="matrix(1,0,0,1,75.54432,98.67215592067988)"><svg viewBox="0 0 244.43135999999998 49.85568815864023" height="49.85568815864023" width="244.43135999999998"><g><svg viewBox="0 0 244.43135999999998 49.85568815864023" height="49.85568815864023" width="244.43135999999998"><g><svg viewBox="0 0 244.43135999999998 49.85568815864023" height="49.85568815864023" width="244.43135999999998"><g><svg viewBox="0 0 244.43135999999998 49.85568815864023" height="49.85568815864023" width="244.43135999999998"><g id="textblocktransform"><svg viewBox="0 0 244.43135999999998 49.85568815864023" height="49.85568815864023" width="244.43135999999998" id="textblock"><g><svg viewBox="0 0 244.43135999999998 49.85568815864023" height="49.85568815864023" width="244.43135999999998"><g transform="matrix(1,0,0,1,0,0)"><svg width="244.43135999999998" viewBox="2.22 -34.86 172.34 35.15" height="49.85568815864023" data-palette-color="#fe7833"><path d="M5.35-13.09L5.54 0 2.22 0 2.22-34.86 8.45-34.86 11.16-23.8 15.67-3.13 17.04-3.13 16.48-22.12 16.31-34.86 19.65-34.86 19.65 0 13.26 0 10.18-12.33 6.3-31.76 4.83-31.76 5.35-13.09ZM31.49 0.29L31.49 0.29Q27.46 0.29 25.74-0.98 24.02-2.25 23.9-5.13L23.9-5.13Q23.8-6.93 23.76-9.38 23.73-11.82 23.76-14.28 23.8-16.75 23.9-18.58L23.9-18.58Q24.02-21.53 25.79-22.8 27.56-24.07 31.49-24.07L31.49-24.07Q35.2-24.07 36.86-22.83 38.52-21.58 38.69-18.73L38.69-18.73Q38.74-17.87 38.79-15.75 38.84-13.62 38.64-11.23L38.64-11.23 26.95-11.23Q26.95-9.69 26.98-8.11 27-6.52 27.07-4.81L27.07-4.81Q27.1-3.47 28.1-2.95 29.1-2.44 31.39-2.44L31.39-2.44Q33.66-2.44 34.59-2.95 35.52-3.47 35.62-4.81L35.62-4.81Q35.69-6.15 35.62-8.47L35.62-8.47 38.64-8.47Q38.77-7.76 38.75-6.82 38.74-5.88 38.69-5.13L38.69-5.13Q38.52-2.25 36.95-0.98 35.37 0.29 31.49 0.29ZM26.95-13.82L26.95-13.82 35.67-13.82Q35.72-15.48 35.72-16.99 35.72-18.51 35.62-19.07L35.62-19.07Q35.52-20.29 34.57-20.81 33.62-21.34 31.49-21.34L31.49-21.34Q29.12-21.34 28.11-20.81 27.1-20.29 27.07-19.07L27.07-19.07Q27-17.65 26.96-16.36 26.93-15.06 26.95-13.82ZM51.12-9.18L50.29 0 44.16 0 41.28-23.75 44.33-23.75 45.53-11.82 46.43-2.71 47.94-2.71 48.63-11.82 49.95-23.68 56.2-23.68 57.47-11.82 58.17-2.71 59.69-2.71 60.64-11.82 61.84-23.75 64.99-23.75 61.93 0 55.81 0 55-9.18 53.93-21 52.19-21 51.12-9.18ZM81.17-13.06L81.17 0 77.77 0 77.77-34.86 85.85-34.86Q90.2-34.86 92.19-33.45 94.18-32.03 94.4-28.76L94.4-28.76Q94.64-26.03 94.62-23.75 94.59-21.48 94.4-19.17L94.4-19.17Q94.28-16.94 93.15-15.61 92.03-14.28 89.64-13.65L89.64-13.65 95.77 0 92.06 0 86.34-13.06 81.17-13.06ZM85.85-31.74L81.17-31.74 81.17-16.19 85.76-16.19Q88.52-16.19 89.72-16.87 90.93-17.55 91.03-18.99L91.03-18.99Q91.4-23.97 91.03-28.93L91.03-28.93Q90.93-30.37 89.74-31.05 88.54-31.74 85.85-31.74L85.85-31.74ZM106.51 0.29L106.51 0.29Q102.48 0.29 100.76-0.98 99.04-2.25 98.91-5.13L98.91-5.13Q98.82-6.93 98.78-9.38 98.74-11.82 98.78-14.28 98.82-16.75 98.91-18.58L98.91-18.58Q99.04-21.53 100.81-22.8 102.58-24.07 106.51-24.07L106.51-24.07Q110.22-24.07 111.88-22.83 113.54-21.58 113.71-18.73L113.71-18.73Q113.76-17.87 113.81-15.75 113.85-13.62 113.66-11.23L113.66-11.23 101.97-11.23Q101.97-9.69 101.99-8.11 102.01-6.52 102.09-4.81L102.09-4.81Q102.11-3.47 103.11-2.95 104.11-2.44 106.41-2.44L106.41-2.44Q108.68-2.44 109.61-2.95 110.53-3.47 110.63-4.81L110.63-4.81Q110.71-6.15 110.63-8.47L110.63-8.47 113.66-8.47Q113.78-7.76 113.77-6.82 113.76-5.88 113.71-5.13L113.71-5.13Q113.54-2.25 111.96-0.98 110.39 0.29 106.51 0.29ZM101.97-13.82L101.97-13.82 110.68-13.82Q110.73-15.48 110.73-16.99 110.73-18.51 110.63-19.07L110.63-19.07Q110.53-20.29 109.58-20.81 108.63-21.34 106.51-21.34L106.51-21.34Q104.14-21.34 103.12-20.81 102.11-20.29 102.09-19.07L102.09-19.07Q102.01-17.65 101.98-16.36 101.94-15.06 101.97-13.82ZM123.06 0.29L123.06 0.29Q120.3 0.29 118.95-0.93 117.61-2.15 117.54-4.96L117.54-4.96Q117.44-6.96 117.4-9.35 117.37-11.74 117.4-14.21 117.44-16.67 117.54-18.82L117.54-18.82Q117.61-21.66 118.99-22.86 120.37-24.07 123.11-24.07L123.11-24.07Q125.13-24.07 126.29-23.45 127.45-22.83 128.31-21.53L128.31-21.53 128.94-21.53 128.94-31.69 132.07-31.69 132.07 0 128.94 0 128.94-2.25 128.23-2.25Q127.4-1.03 126.24-0.37 125.08 0.29 123.06 0.29ZM123.96-2.37L123.96-2.37Q127.65-2.37 128.94-4.59L128.94-4.59 128.94-19.19Q127.67-21.41 123.98-21.41L123.98-21.41Q122.28-21.41 121.51-20.86 120.74-20.31 120.71-19.09L120.71-19.09Q120.57-15.43 120.59-11.66 120.61-7.89 120.71-4.69L120.71-4.69Q120.76-3.49 121.51-2.93 122.25-2.37 123.96-2.37ZM141.9 0.29L141.9 0.29Q139.14 0.29 137.8-0.93 136.46-2.15 136.38-4.96L136.38-4.96Q136.29-6.96 136.25-9.35 136.21-11.74 136.25-14.21 136.29-16.67 136.38-18.82L136.38-18.82Q136.46-21.66 137.84-22.86 139.22-24.07 141.95-24.07L141.95-24.07Q143.98-24.07 145.14-23.45 146.3-22.83 147.15-21.53L147.15-21.53 147.79-21.53 147.79-31.69 150.91-31.69 150.91 0 147.79 0 147.79-2.25 147.08-2.25Q146.25-1.03 145.09-0.37 143.93 0.29 141.9 0.29ZM142.8-2.37L142.8-2.37Q146.49-2.37 147.79-4.59L147.79-4.59 147.79-19.19Q146.52-21.41 142.83-21.41L142.83-21.41Q141.12-21.41 140.35-20.86 139.58-20.31 139.56-19.09L139.56-19.09Q139.41-15.43 139.44-11.66 139.46-7.89 139.56-4.69L139.56-4.69Q139.61-3.49 140.35-2.93 141.1-2.37 142.8-2.37ZM159.26-31.69L159.26-28.17 156.11-28.17 156.11-31.69 159.26-31.69ZM159.26-23.75L159.26 0 156.08 0 156.08-23.75 159.26-23.75ZM171.9 0.29L171.9 0.29Q168.09 0.29 166.76-0.98 165.43-2.25 165.43-5.13L165.43-5.13 165.43-21.02 163.09-21.02 163.09-23.75 165.5-23.75 165.5-30.49 168.61-30.49 168.61-23.75 173.98-23.75 173.98-21.02 168.58-21.02 168.58-4.79Q168.58-3.44 169.14-2.93 169.7-2.42 171.97-2.42L171.97-2.42Q172.9-2.42 173.4-2.45 173.9-2.49 174.56-2.51L174.56-2.51 174.56 0.1Q173.98 0.2 173.29 0.24 172.61 0.29 171.9 0.29Z" opacity="1" transform="matrix(1,0,0,1,0,0)" fill="#fe7833" class="wordmark-text-0" data-fill-palette-color="primary" id="text-0"></path></svg></g></svg></g></svg></g></svg></g></svg></g></svg></g></svg></g><g><path d="M245.816 0c68.262 0 123.6 55.338 123.6 123.6 0 68.262-55.338 123.6-123.6 123.6-57.624 0-106.038-39.433-119.729-92.787h2.323c13.636 52.099 61.032 90.539 117.406 90.539 67.021 0 121.352-54.331 121.352-121.352 0-67.021-54.331-121.352-121.352-121.352-56.374 0-103.77 38.44-117.406 90.539l-2.323 0c13.691-53.354 62.104-92.787 119.729-92.787z" fill="#fe7833" stroke="transparent" data-fill-palette-color="tertiary"></path></g></svg></g><defs></defs></svg><rect width="395.52" height="247.2" fill="none" stroke="none" visibility="hidden"></rect></g></svg></g></svg>